
		<svg xmlns="http://www.w3.org/2000/svg" xmlns:xlink="http://www.w3.org/1999/xlink" version="1.1" width="3167.5977653631285" height="1776.536312849162">
			
			<g transform="scale(8.379888268156424) translate(10, 10)">
				<defs id="SvgjsDefs1191"><linearGradient id="SvgjsLinearGradient1196"><stop id="SvgjsStop1197" stop-color="#b88746" offset="0"/><stop id="SvgjsStop1198" stop-color="#fdf5a6" offset="1"/></linearGradient><linearGradient id="SvgjsLinearGradient1199"><stop id="SvgjsStop1200" stop-color="#b88746" offset="0"/><stop id="SvgjsStop1201" stop-color="#fdf5a6" offset="1"/></linearGradient><linearGradient id="SvgjsLinearGradient1202"><stop id="SvgjsStop1203" stop-color="#b88746" offset="0"/><stop id="SvgjsStop1204" stop-color="#fdf5a6" offset="1"/></linearGradient></defs><g id="SvgjsG1192" featureKey="root" fill="#fff"/><g id="SvgjsG1193" featureKey="symbol1" fill="#fff" transform="matrix(0.7526881720430108,0,0,0.7526881720430108,144,10)"><path d="M23.8,71.4c0.2,0.6,0.4,1.2,0.7,1.8c4.9,11.6,16.4,19.7,29.9,19.7l36.3,0.2L46.3,48.9L23.8,71.4z"/><path d="M69.2,21.5c-0.2-0.6-0.4-1.2-0.7-1.8C63.6,8.1,52.1,0,38.7,0H2.2l44.3,44.3L69.2,21.5z"/><path d="M21.3,23.9c-0.6,0.2,0-0.8-0.6-0.6C9.1,28.3,0,40.8,0,54.2l0,36.5l44.1-44.1L21.3,23.9z"/><path d="M48.7,46.5l22.7,22.7c0.6-0.2,1.2-0.4,1.8-0.7C84.8,63.7,93,52.2,93,38.8l0-36.5L48.7,46.5z"/></g><g id="SvgjsG1194" featureKey="text1" fill="#fff" transform="matrix(4.065335584304634,0,0,4.065335584304634,-3.7401090477207544,71.46062439876115)"><path d="M5.74 9.48 q1.98 0 3.2 1.04 t1.26 2.88 q0 1.14 -0.58 2.16 t-1.84 2.22 l-4.7 4.54 l7.12 0 l0 1.68 l-9.28 0 l0 -2.04 l5.52 -5.48 q0.72 -0.7 1.22 -1.46 t0.5 -1.6 q0 -1 -0.69 -1.63 t-1.75 -0.63 t-1.73 0.58 t-0.85 1.6 l-2.08 -0.18 q0.28 -1.78 1.51 -2.73 t3.17 -0.95 z M15.66 9.84 l4.5 10.72 l0.08 0 l4.46 -10.72 l2.86 0 l0 14.16 l-1.92 0 l0 -11.64 l-0.04 0 l-4.78 11.64 l-1.28 0 l-4.78 -11.64 l-0.04 0 l0 11.64 l-1.92 0 l0 -14.16 l2.86 0 z  M43.120000000000005 9.48 q1.5 0 2.81 0.56 t2.15 1.64 l-1.6 1.22 q-1.3 -1.62 -3.42 -1.62 q-2.3 0 -3.79 1.64 t-1.49 4.12 q0 2.4 1.47 3.96 t3.81 1.56 t3.7 -1.9 l1.62 1.22 q-0.84 1.12 -2.24 1.8 t-3.12 0.68 q-2.04 0 -3.7 -0.99 t-2.62 -2.72 t-0.96 -3.63 q0 -3.28 2.06 -5.41 t5.32 -2.13 z M57.2 9.48 q3.16 0 5.27 2.1 t2.11 5.34 q0 2.06 -0.94 3.77 t-2.65 2.69 t-3.79 0.98 q-2.06 0 -3.76 -0.97 t-2.66 -2.68 t-0.96 -3.79 q0 -3.16 2.07 -5.3 t5.31 -2.14 z M51.86 16.92 q0 2.4 1.5 4.02 t3.84 1.62 q2.3 0 3.82 -1.6 t1.52 -4.04 q0 -2.42 -1.5 -4.03 t-3.86 -1.61 q-2.28 0 -3.8 1.6 t-1.52 4.04 z M72.42000000000002 9.84 q2.08 0 3.26 1.04 t1.18 2.92 q0 1.42 -0.97 2.48 t-2.49 1.26 l-0.02 0 l4.02 6.46 l-2.4 0 l-3.6 -6.24 l-2.14 0 l0 6.24 l-1.92 0 l0 -14.16 l5.08 0 z M71.86000000000001 16.08 q1.5 0 2.23 -0.55 t0.73 -1.73 q0 -2.28 -2.96 -2.28 l-2.6 0 l0 4.56 l2.6 0 z M84.64000000000001 9.84 q2.06 0 3.25 1.02 t1.19 2.94 q0 1.86 -1.18 2.91 t-3.26 1.05 l-3.16 0 l0 6.24 l-1.92 0 l0 -14.16 l5.08 0 z M84.08000000000001 16.08 q1.5 0 2.23 -0.55 t0.73 -1.73 q0 -2.28 -2.96 -2.28 l-2.6 0 l0 4.56 l2.6 0 z"/></g><g id="SvgjsG1195" featureKey="text3" fill="#fff" transform="matrix(0.4748697469987183,0,0,0.4748697469987183,71.24020828026251,182.58766149504066)"><path d="M4.4 8.46 l0 2.42 c0 0.34 0.28 0.62 0.62 0.62 l5.84 0 c0.34 0 0.62 0.28 0.62 0.62 l0 1.3 c0 0.34 -0.28 0.62 -0.62 0.62 l-5.84 0 c-0.34 0 -0.62 0.28 -0.62 0.62 l0 2.2 c0 0.34 0.28 0.62 0.62 0.62 l6.74 0 c0.34 0 0.62 0.28 0.62 0.62 l0 1.28 c0 0.34 -0.28 0.62 -0.62 0.62 l-9.54 0 c-0.34 0 -0.62 -0.28 -0.62 -0.62 l0 -13.4 c0 -0.34 0.28 -0.62 0.62 -0.62 l9.54 0 c0.34 0 0.62 0.28 0.62 0.62 l0 1.24 c0 0.34 -0.28 0.62 -0.62 0.62 l-6.74 0 c-0.34 0 -0.62 0.28 -0.62 0.62 z M30 5.699999999999999 l0 13.68 c0 0.34 -0.28 0.62 -0.6 0.62 l-1.58 0 c-0.34 0 -0.62 -0.28 -0.62 -0.62 l0 -6.16 c0 -0.34 -0.18 -0.42 -0.38 -0.14 l-3.8 4.54 c-0.22 0.26 -0.58 0.26 -0.78 0 l-3.78 -4.54 c-0.22 -0.26 -0.4 -0.2 -0.4 0.14 l0 6.16 c0 0.34 -0.28 0.62 -0.62 0.62 l-1.56 0 c-0.34 0 -0.62 -0.28 -0.62 -0.62 l0 -13.68 c0 -0.34 0.42 -0.4 0.64 -0.14 l6.32 7.8 c0.22 0.24 0.58 0.24 0.8 0 l6.34 -7.8 c0.22 -0.26 0.64 -0.2 0.64 0.14 z M41.78 5.76 c0.62 0.28 1.18 0.66 1.64 1.12 c0.48 0.46 0.84 1.02 1.12 1.64 c0.26 0.64 0.4 1.32 0.4 2.04 s-0.12 1.38 -0.36 2 s-0.58 1.14 -1.06 1.6 c-0.46 0.46 -1.06 0.82 -1.76 1.08 c-0.72 0.26 -1.54 0.4 -2.48 0.4 l-2.64 0 c-0.34 0 -0.62 0.28 -0.62 0.62 l0 3.12 c0 0.34 -0.26 0.62 -0.6 0.62 l-1.58 0 c-0.34 0 -0.62 -0.28 -0.62 -0.62 l0 -13.4 c0 -0.34 0.28 -0.62 0.62 -0.62 l5.9 0 c0.72 0 1.4 0.14 2.04 0.4 z M40.82 12.9 c0.32 -0.14 0.56 -0.32 0.76 -0.56 c0.18 -0.24 0.34 -0.52 0.42 -0.82 c0.1 -0.3 0.14 -0.62 0.14 -0.96 s-0.06 -0.66 -0.18 -1 c-0.12 -0.32 -0.28 -0.6 -0.52 -0.86 c-0.22 -0.26 -0.5 -0.46 -0.84 -0.62 c-0.32 -0.16 -0.72 -0.24 -1.16 -0.24 l-2.8 0 c-0.34 0 -0.62 0.28 -0.62 0.62 l0 4.04 c0 0.34 0.28 0.62 0.62 0.62 l3.1 0 c0.42 0 0.78 -0.08 1.08 -0.22 z M53.62 20.28 c-4.18 0 -7.58 -3.4 -7.58 -7.6 c0 -4.18 3.4 -7.6 7.58 -7.6 c4.2 0 7.6 3.42 7.6 7.6 c0 4.2 -3.4 7.6 -7.6 7.6 z M53.62 7.699999999999999 c-2.64 0 -4.8 2.34 -4.8 4.98 c0 2.66 2.16 5 4.8 5 c2.66 0 4.8 -2.34 4.8 -5 c0 -2.64 -2.14 -4.98 -4.8 -4.98 z M81.5 5.960000000000001 l-5.04 13.82 c-0.12 0.32 -0.58 0.32 -0.72 0.02 l-3.46 -7.76 c-0.14 -0.32 -0.38 -0.32 -0.52 0 l-3.48 7.7 c-0.16 0.3 -0.6 0.3 -0.72 -0.02 l-4.98 -13.76 c-0.12 -0.32 0.06 -0.58 0.4 -0.58 l1.74 0 c0.34 0 0.72 0.26 0.82 0.58 l2.46 6.86 c0.1 0.32 0.32 0.32 0.46 0.02 l3.18 -7.22 c0.14 -0.3 0.6 -0.3 0.74 0 l3.18 7.24 c0.14 0.3 0.36 0.3 0.46 -0.02 l2.52 -6.88 c0.1 -0.32 0.48 -0.58 0.82 -0.58 l1.74 0 c0.34 0 0.52 0.26 0.4 0.58 z M86.32000000000001 8.46 l0 2.42 c0 0.34 0.28 0.62 0.62 0.62 l5.84 0 c0.34 0 0.62 0.28 0.62 0.62 l0 1.3 c0 0.34 -0.28 0.62 -0.62 0.62 l-5.84 0 c-0.34 0 -0.62 0.28 -0.62 0.62 l0 2.2 c0 0.34 0.28 0.62 0.62 0.62 l6.74 0 c0.34 0 0.62 0.28 0.62 0.62 l0 1.28 c0 0.34 -0.28 0.62 -0.62 0.62 l-9.54 0 c-0.34 0 -0.62 -0.28 -0.62 -0.62 l0 -13.4 c0 -0.34 0.28 -0.62 0.62 -0.62 l9.54 0 c0.34 0 0.62 0.28 0.62 0.62 l0 1.24 c0 0.34 -0.28 0.62 -0.62 0.62 l-6.74 0 c-0.34 0 -0.62 0.28 -0.62 0.62 z M99.38 20 l-1.58 0 c-0.34 0 -0.62 -0.28 -0.62 -0.62 l0 -13.4 c0 -0.34 0.28 -0.62 0.62 -0.62 l6.04 0 c0.74 0 1.44 0.12 2.06 0.36 c0.62 0.26 1.14 0.6 1.58 1.04 c0.44 0.46 0.8 0.98 1.04 1.6 s0.36 1.3 0.36 2.04 c0 1.1 -0.26 2.08 -0.82 2.9 c-0.44 0.66 -1 1.16 -1.66 1.52 c-0.3 0.16 -0.4 0.48 -0.18 0.74 c0.98 1.32 1.84 2.46 2.8 3.78 c0.2 0.28 0.1 0.66 -0.24 0.66 l-2.02 0 c-0.34 0 -0.78 -0.22 -0.98 -0.48 c-0.46 -0.6 -0.9 -1.22 -1.34 -1.82 l-1.32 -1.86 c-0.2 -0.28 -0.64 -0.5 -0.98 -0.5 l-1.54 0 c-0.34 0 -0.62 0.28 -0.62 0.62 l0 3.42 c0 0.34 -0.26 0.62 -0.6 0.62 z M100.6 12.86 l3.24 0 c0.24 0 0.52 -0.06 0.78 -0.16 c0.28 -0.1 0.52 -0.24 0.74 -0.46 c0.2 -0.2 0.38 -0.46 0.52 -0.76 s0.2 -0.66 0.2 -1.08 c0 -0.22 -0.02 -0.46 -0.08 -0.76 c-0.04 -0.3 -0.16 -0.58 -0.3 -0.84 c-0.16 -0.26 -0.4 -0.5 -0.68 -0.68 c-0.3 -0.18 -0.7 -0.28 -1.18 -0.28 l-3.24 0 c-0.34 0 -0.62 0.28 -0.62 0.62 l0 3.78 c0 0.34 0.28 0.62 0.62 0.62 z M114.16 20 l-1.58 0 c-0.34 0 -0.6 -0.28 -0.6 -0.62 l0 -13.38 c0 -0.34 0.26 -0.62 0.6 -0.62 l1.58 0 c0.34 0 0.62 0.28 0.62 0.62 l0 13.38 c0 0.34 -0.28 0.62 -0.62 0.62 z M121.18 11.92 l0 7.46 c0 0.34 -0.28 0.62 -0.62 0.62 l-1.58 0 c-0.32 0 -0.6 -0.28 -0.6 -0.62 l0 -13.68 c0 -0.34 0.44 -0.42 0.68 -0.2 l8.78 8.3 c0.26 0.24 0.46 0.14 0.46 -0.2 l0 -7.6 c0 -0.34 0.28 -0.62 0.62 -0.62 l1.56 0 c0.34 0 0.62 0.28 0.62 0.62 l0 13.66 c0 0.34 -0.44 0.42 -0.7 0.2 l-8.76 -8.16 c-0.26 -0.22 -0.46 -0.12 -0.46 0.22 z M148.51999999999998 12.620000000000001 c-0.02 0.54 -0.04 1.18 -0.06 1.26 c-0.08 0.92 -0.32 1.78 -0.74 2.56 s-0.96 1.46 -1.62 2.02 c-0.66 0.58 -1.42 1.02 -2.28 1.34 s-1.78 0.48 -2.72 0.48 c-1.04 0 -2.02 -0.2 -2.94 -0.6 s-1.72 -0.94 -2.42 -1.64 c-0.68 -0.68 -1.24 -1.48 -1.64 -2.4 s-0.6 -1.9 -0.6 -2.94 s0.2 -2.02 0.6 -2.96 c0.4 -0.92 0.96 -1.72 1.64 -2.42 c0.7 -0.68 1.5 -1.22 2.42 -1.62 s1.9 -0.6 2.94 -0.6 c1.32 0 2.54 0.3 3.64 0.92 c0.9 0.5 1.68 1.16 2.3 1.96 c0.22 0.26 0.12 0.64 -0.16 0.82 l-1.36 0.82 c-0.28 0.18 -0.66 0.08 -0.9 -0.16 c-0.36 -0.42 -0.78 -0.8 -1.28 -1.1 c-0.7 -0.42 -1.44 -0.64 -2.24 -0.64 c-0.66 0 -1.28 0.14 -1.86 0.4 c-0.58 0.28 -1.1 0.64 -1.52 1.1 c-0.44 0.46 -0.78 0.98 -1.04 1.58 c-0.26 0.62 -0.38 1.24 -0.38 1.9 s0.12 1.3 0.38 1.9 s0.6 1.12 1.04 1.58 c0.42 0.46 0.94 0.82 1.52 1.08 c0.58 0.28 1.2 0.42 1.86 0.42 c0.5 0 1 -0.08 1.46 -0.24 c0.46 -0.14 0.9 -0.36 1.28 -0.64 s0.72 -0.62 1.02 -1 c0.16 -0.22 0.3 -0.46 0.4 -0.7 c0.16 -0.32 -0.06 -0.58 -0.4 -0.58 l-4.16 0 c-0.34 0 -0.62 -0.28 -0.62 -0.62 l0 -1.28 c0 -0.34 0.28 -0.62 0.62 -0.62 l7.2 0 c0.34 0 0.62 0.28 0.62 0.62 z  M169.85999999999999 5.9 c-0.3 0.48 -0.62 1 -0.98 1.58 c-0.48 0.78 -0.98 1.58 -1.48 2.4 c-0.52 0.82 -1.02 1.64 -1.5 2.42 c-0.38 0.58 -0.7 1.12 -1 1.62 c-0.18 0.3 -0.3 0.82 -0.3 1.16 l0 4.3 c0 0.34 -0.28 0.62 -0.62 0.62 l-1.58 0 c-0.34 0 -0.6 -0.28 -0.6 -0.62 l0 -4.3 c0 -0.34 -0.14 -0.86 -0.32 -1.16 c-0.78 -1.34 -1.6 -2.68 -2.44 -4 c-0.88 -1.34 -1.7 -2.68 -2.48 -4.02 c-0.18 -0.28 -0.04 -0.52 0.3 -0.52 l2.04 0 c0.34 0 0.76 0.24 0.92 0.52 c0.5 0.84 1.02 1.7 1.54 2.58 c0.5 0.88 1.02 1.74 1.52 2.58 c0.16 0.28 0.46 0.28 0.64 0 c0.18 -0.32 0.38 -0.64 0.6 -0.98 l0.96 -1.62 s0.62 -1.06 0.94 -1.6 c0.2 -0.32 0.4 -0.64 0.58 -0.96 c0.16 -0.28 0.58 -0.52 0.92 -0.52 l2.04 0 c0.34 0 0.46 0.24 0.3 0.52 z M178.72 20.28 c-4.18 0 -7.58 -3.4 -7.58 -7.6 c0 -4.18 3.4 -7.6 7.58 -7.6 c4.2 0 7.6 3.42 7.6 7.6 c0 4.2 -3.4 7.6 -7.6 7.6 z M178.72 7.699999999999999 c-2.64 0 -4.8 2.34 -4.8 4.98 c0 2.66 2.16 5 4.8 5 c2.66 0 4.8 -2.34 4.8 -5 c0 -2.64 -2.14 -4.98 -4.8 -4.98 z M192.5 19.82 c-0.78 -0.3 -1.44 -0.7 -1.98 -1.24 c-0.56 -0.54 -0.98 -1.18 -1.28 -1.94 s-0.44 -1.6 -0.44 -2.54 l0 -8.1 c0 -0.34 0.28 -0.62 0.6 -0.62 l1.58 0 c0.34 0 0.62 0.28 0.62 0.62 l0 8.08 c0 0.74 0.12 1.34 0.36 1.82 s0.54 0.86 0.88 1.14 c0.36 0.28 0.74 0.48 1.14 0.58 c0.42 0.1 0.78 0.16 1.1 0.16 s0.68 -0.06 1.08 -0.16 c0.42 -0.1 0.8 -0.3 1.14 -0.58 c0.36 -0.28 0.66 -0.66 0.9 -1.14 s0.36 -1.08 0.36 -1.82 l0 -8.08 c0 -0.34 0.28 -0.62 0.62 -0.62 l1.56 0 c0.34 0 0.62 0.28 0.62 0.62 l0 8.1 c0 0.94 -0.16 1.78 -0.44 2.54 c-0.3 0.76 -0.72 1.4 -1.26 1.94 c-0.56 0.54 -1.22 0.94 -1.98 1.24 c-0.78 0.3 -1.64 0.44 -2.6 0.44 s-1.82 -0.14 -2.58 -0.44 z  M214.2 8.46 l0 2.38 c0 0.34 0.28 0.62 0.62 0.62 l5.84 0 c0.34 0 0.6 0.28 0.6 0.62 l0 1.34 c0 0.34 -0.26 0.62 -0.6 0.62 l-5.84 0 c-0.34 0 -0.62 0.28 -0.62 0.62 l0 4.72 c0 0.34 -0.26 0.62 -0.6 0.62 l-1.58 0 c-0.34 0 -0.62 -0.28 -0.62 -0.62 l0 -13.4 c0 -0.34 0.28 -0.62 0.62 -0.62 l9.54 0 c0.34 0 0.6 0.28 0.6 0.62 l0 1.24 c0 0.34 -0.26 0.62 -0.6 0.62 l-6.74 0 c-0.34 0 -0.62 0.28 -0.62 0.62 z M231.27999999999997 20.28 c-4.18 0 -7.58 -3.4 -7.58 -7.6 c0 -4.18 3.4 -7.6 7.58 -7.6 c4.2 0 7.6 3.42 7.6 7.6 c0 4.2 -3.4 7.6 -7.6 7.6 z M231.27999999999997 7.699999999999999 c-2.64 0 -4.8 2.34 -4.8 4.98 c0 2.66 2.16 5 4.8 5 c2.66 0 4.8 -2.34 4.8 -5 c0 -2.64 -2.14 -4.98 -4.8 -4.98 z M243.56 20 l-1.58 0 c-0.34 0 -0.62 -0.28 -0.62 -0.62 l0 -13.4 c0 -0.34 0.28 -0.62 0.62 -0.62 l6.04 0 c0.74 0 1.44 0.12 2.06 0.36 c0.62 0.26 1.14 0.6 1.58 1.04 c0.44 0.46 0.8 0.98 1.04 1.6 s0.36 1.3 0.36 2.04 c0 1.1 -0.26 2.08 -0.82 2.9 c-0.44 0.66 -1 1.16 -1.66 1.52 c-0.3 0.16 -0.4 0.48 -0.18 0.74 c0.98 1.32 1.84 2.46 2.8 3.78 c0.2 0.28 0.1 0.66 -0.24 0.66 l-2.02 0 c-0.34 0 -0.78 -0.22 -0.98 -0.48 c-0.46 -0.6 -0.9 -1.22 -1.34 -1.82 l-1.32 -1.86 c-0.2 -0.28 -0.64 -0.5 -0.98 -0.5 l-1.54 0 c-0.34 0 -0.62 0.28 -0.62 0.62 l0 3.42 c0 0.34 -0.26 0.62 -0.6 0.62 z M244.78 12.86 l3.24 0 c0.24 0 0.52 -0.06 0.78 -0.16 c0.28 -0.1 0.52 -0.24 0.74 -0.46 c0.2 -0.2 0.38 -0.46 0.52 -0.76 s0.2 -0.66 0.2 -1.08 c0 -0.22 -0.02 -0.46 -0.08 -0.76 c-0.04 -0.3 -0.16 -0.58 -0.3 -0.84 c-0.16 -0.26 -0.4 -0.5 -0.68 -0.68 c-0.3 -0.18 -0.7 -0.28 -1.18 -0.28 l-3.24 0 c-0.34 0 -0.62 0.28 -0.62 0.62 l0 3.78 c0 0.34 0.28 0.62 0.62 0.62 z  M261.4 19.46 l6.94 -13.86 c0.16 -0.32 0.64 -0.32 0.8 0 l6.94 13.86 c0.16 0.3 0.02 0.54 -0.32 0.54 l-1.82 0 c-0.34 0 -0.74 -0.24 -0.88 -0.56 l-0.6 -1.2 c-0.16 -0.3 -0.54 -0.54 -0.88 -0.54 l-5.68 0 c-0.34 0 -0.74 0.24 -0.88 0.56 l-0.58 1.18 c-0.16 0.32 -0.54 0.56 -0.88 0.56 l-1.82 0 c-0.34 0 -0.48 -0.24 -0.34 -0.54 z M267.26 15.26 l2.96 0 c0.34 0 0.48 -0.26 0.34 -0.56 l-1.56 -3.3 c-0.14 -0.32 -0.38 -0.32 -0.52 0 l-1.58 3.3 c-0.14 0.32 0.02 0.56 0.36 0.56 z  M295.46 10.38 c-0.12 0.32 -0.28 0.64 -0.48 0.92 s-0.46 0.52 -0.76 0.7 c-0.14 0.1 -0.3 0.18 -0.46 0.24 c-0.26 0.08 -0.24 0.1 0.06 0.18 c0.18 0.06 0.34 0.12 0.52 0.2 c0.36 0.18 0.66 0.42 0.94 0.74 c0.28 0.3 0.52 0.66 0.7 1.06 s0.26 0.82 0.26 1.26 c0 0.8 -0.12 1.48 -0.36 2.04 c-0.24 0.54 -0.56 1 -0.98 1.34 c-0.4 0.34 -0.88 0.58 -1.44 0.72 s-1.14 0.22 -1.78 0.22 l-6.14 0 c-0.34 0 -0.62 -0.28 -0.62 -0.62 l0 -13.4 c0 -0.34 0.28 -0.62 0.62 -0.62 l5.82 0 c0.6 0 1.14 0.06 1.66 0.16 c0.52 0.12 0.98 0.32 1.36 0.64 c0.4 0.3 0.7 0.7 0.92 1.24 c0.24 0.52 0.34 1.2 0.34 2.02 c0 0.3 -0.06 0.62 -0.18 0.96 z M288.34 11.32 l2.82 0 c0.28 0 0.54 -0.06 0.74 -0.16 s0.38 -0.26 0.52 -0.42 c0.14 -0.18 0.24 -0.38 0.32 -0.6 s0.1 -0.44 0.1 -0.66 c0 -0.2 -0.04 -0.42 -0.12 -0.62 s-0.18 -0.38 -0.32 -0.52 c-0.12 -0.14 -0.28 -0.26 -0.46 -0.36 s-0.38 -0.14 -0.58 -0.14 l-3.02 0 c-0.34 0 -0.62 0.28 -0.62 0.62 l0 2.24 c0 0.34 0.28 0.62 0.62 0.62 z M292.36 17.34 c0.22 -0.1 0.4 -0.26 0.56 -0.46 c0.16 -0.18 0.3 -0.4 0.38 -0.64 c0.1 -0.22 0.14 -0.46 0.14 -0.7 c0 -0.5 -0.18 -0.9 -0.54 -1.24 s-0.88 -0.5 -1.52 -0.5 l-3.04 0 c-0.34 0 -0.62 0.28 -0.62 0.62 l0 2.48 c0 0.34 0.28 0.62 0.62 0.62 l3.34 0 c0.24 0 0.48 -0.06 0.68 -0.18 z M301.61999999999995 8.46 l0 2.42 c0 0.34 0.28 0.62 0.62 0.62 l5.84 0 c0.34 0 0.62 0.28 0.62 0.62 l0 1.3 c0 0.34 -0.28 0.62 -0.62 0.62 l-5.84 0 c-0.34 0 -0.62 0.28 -0.62 0.62 l0 2.2 c0 0.34 0.28 0.62 0.62 0.62 l6.74 0 c0.34 0 0.62 0.28 0.62 0.62 l0 1.28 c0 0.34 -0.28 0.62 -0.62 0.62 l-9.54 0 c-0.34 0 -0.62 -0.28 -0.62 -0.62 l0 -13.4 c0 -0.34 0.28 -0.62 0.62 -0.62 l9.54 0 c0.34 0 0.62 0.28 0.62 0.62 l0 1.24 c0 0.34 -0.28 0.62 -0.62 0.62 l-6.74 0 c-0.34 0 -0.62 0.28 -0.62 0.62 z M322.38 7.84 l-2.94 0 c-0.34 0 -0.62 0.28 -0.62 0.62 l0 10.92 c0 0.34 -0.28 0.62 -0.62 0.62 l-1.56 0 c-0.34 0 -0.62 -0.28 -0.62 -0.62 l0 -10.92 c0 -0.34 -0.28 -0.62 -0.62 -0.62 l-2.96 0 c-0.34 0 -0.62 -0.28 -0.62 -0.62 l0 -1.24 c0 -0.34 0.28 -0.62 0.62 -0.62 l9.94 0 c0.34 0 0.62 0.28 0.62 0.62 l0 1.24 c0 0.34 -0.28 0.62 -0.62 0.62 z M334.82 7.84 l-2.94 0 c-0.34 0 -0.62 0.28 -0.62 0.62 l0 10.92 c0 0.34 -0.28 0.62 -0.62 0.62 l-1.56 0 c-0.34 0 -0.62 -0.28 -0.62 -0.62 l0 -10.92 c0 -0.34 -0.28 -0.62 -0.62 -0.62 l-2.96 0 c-0.34 0 -0.62 -0.28 -0.62 -0.62 l0 -1.24 c0 -0.34 0.28 -0.62 0.62 -0.62 l9.94 0 c0.34 0 0.62 0.28 0.62 0.62 l0 1.24 c0 0.34 -0.28 0.62 -0.62 0.62 z M340.15999999999997 8.46 l0 2.42 c0 0.34 0.28 0.62 0.62 0.62 l5.84 0 c0.34 0 0.62 0.28 0.62 0.62 l0 1.3 c0 0.34 -0.28 0.62 -0.62 0.62 l-5.84 0 c-0.34 0 -0.62 0.28 -0.62 0.62 l0 2.2 c0 0.34 0.28 0.62 0.62 0.62 l6.74 0 c0.34 0 0.62 0.28 0.62 0.62 l0 1.28 c0 0.34 -0.28 0.62 -0.62 0.62 l-9.54 0 c-0.34 0 -0.62 -0.28 -0.62 -0.62 l0 -13.4 c0 -0.34 0.28 -0.62 0.62 -0.62 l9.54 0 c0.34 0 0.62 0.28 0.62 0.62 l0 1.24 c0 0.34 -0.28 0.62 -0.62 0.62 l-6.74 0 c-0.34 0 -0.62 0.28 -0.62 0.62 z M353.22 20 l-1.58 0 c-0.34 0 -0.62 -0.28 -0.62 -0.62 l0 -13.4 c0 -0.34 0.28 -0.62 0.62 -0.62 l6.04 0 c0.74 0 1.44 0.12 2.06 0.36 c0.62 0.26 1.14 0.6 1.58 1.04 c0.44 0.46 0.8 0.98 1.04 1.6 s0.36 1.3 0.36 2.04 c0 1.1 -0.26 2.08 -0.82 2.9 c-0.44 0.66 -1 1.16 -1.66 1.52 c-0.3 0.16 -0.4 0.48 -0.18 0.74 c0.98 1.32 1.84 2.46 2.8 3.78 c0.2 0.28 0.1 0.66 -0.24 0.66 l-2.02 0 c-0.34 0 -0.78 -0.22 -0.98 -0.48 c-0.46 -0.6 -0.9 -1.22 -1.34 -1.82 l-1.32 -1.86 c-0.2 -0.28 -0.64 -0.5 -0.98 -0.5 l-1.54 0 c-0.34 0 -0.62 0.28 -0.62 0.62 l0 3.42 c0 0.34 -0.26 0.62 -0.6 0.62 z M354.44 12.86 l3.24 0 c0.24 0 0.52 -0.06 0.78 -0.16 c0.28 -0.1 0.52 -0.24 0.74 -0.46 c0.2 -0.2 0.38 -0.46 0.52 -0.76 s0.2 -0.66 0.2 -1.08 c0 -0.22 -0.02 -0.46 -0.08 -0.76 c-0.04 -0.3 -0.16 -0.58 -0.3 -0.84 c-0.16 -0.26 -0.4 -0.5 -0.68 -0.68 c-0.3 -0.18 -0.7 -0.28 -1.18 -0.28 l-3.24 0 c-0.34 0 -0.62 0.28 -0.62 0.62 l0 3.78 c0 0.34 0.28 0.62 0.62 0.62 z  M375.05999999999995 8.46 l0 2.38 c0 0.34 0.28 0.62 0.62 0.62 l5.84 0 c0.34 0 0.6 0.28 0.6 0.62 l0 1.34 c0 0.34 -0.26 0.62 -0.6 0.62 l-5.84 0 c-0.34 0 -0.62 0.28 -0.62 0.62 l0 4.72 c0 0.34 -0.26 0.62 -0.6 0.62 l-1.58 0 c-0.34 0 -0.62 -0.28 -0.62 -0.62 l0 -13.4 c0 -0.34 0.28 -0.62 0.62 -0.62 l9.54 0 c0.34 0 0.6 0.28 0.6 0.62 l0 1.24 c0 0.34 -0.26 0.62 -0.6 0.62 l-6.74 0 c-0.34 0 -0.62 0.28 -0.62 0.62 z M389 19.82 c-0.78 -0.3 -1.44 -0.7 -1.98 -1.24 c-0.56 -0.54 -0.98 -1.18 -1.28 -1.94 s-0.44 -1.6 -0.44 -2.54 l0 -8.1 c0 -0.34 0.28 -0.62 0.6 -0.62 l1.58 0 c0.34 0 0.62 0.28 0.62 0.62 l0 8.08 c0 0.74 0.12 1.34 0.36 1.82 s0.54 0.86 0.88 1.14 c0.36 0.28 0.74 0.48 1.14 0.58 c0.42 0.1 0.78 0.16 1.1 0.16 s0.68 -0.06 1.08 -0.16 c0.42 -0.1 0.8 -0.3 1.14 -0.58 c0.36 -0.28 0.66 -0.66 0.9 -1.14 s0.36 -1.08 0.36 -1.82 l0 -8.08 c0 -0.34 0.28 -0.62 0.62 -0.62 l1.56 0 c0.34 0 0.62 0.28 0.62 0.62 l0 8.1 c0 0.94 -0.16 1.78 -0.44 2.54 c-0.3 0.76 -0.72 1.4 -1.26 1.94 c-0.56 0.54 -1.22 0.94 -1.98 1.24 c-0.78 0.3 -1.64 0.44 -2.6 0.44 s-1.82 -0.14 -2.58 -0.44 z M410.96 7.84 l-2.94 0 c-0.34 0 -0.62 0.28 -0.62 0.62 l0 10.92 c0 0.34 -0.28 0.62 -0.62 0.62 l-1.56 0 c-0.34 0 -0.62 -0.28 -0.62 -0.62 l0 -10.92 c0 -0.34 -0.28 -0.62 -0.62 -0.62 l-2.96 0 c-0.34 0 -0.62 -0.28 -0.62 -0.62 l0 -1.24 c0 -0.34 0.28 -0.62 0.62 -0.62 l9.94 0 c0.34 0 0.62 0.28 0.62 0.62 l0 1.24 c0 0.34 -0.28 0.62 -0.62 0.62 z M417.2 19.82 c-0.78 -0.3 -1.44 -0.7 -1.98 -1.24 c-0.56 -0.54 -0.98 -1.18 -1.28 -1.94 s-0.44 -1.6 -0.44 -2.54 l0 -8.1 c0 -0.34 0.28 -0.62 0.6 -0.62 l1.58 0 c0.34 0 0.62 0.28 0.62 0.62 l0 8.08 c0 0.74 0.12 1.34 0.36 1.82 s0.54 0.86 0.88 1.14 c0.36 0.28 0.74 0.48 1.14 0.58 c0.42 0.1 0.78 0.16 1.1 0.16 s0.68 -0.06 1.08 -0.16 c0.42 -0.1 0.8 -0.3 1.14 -0.58 c0.36 -0.28 0.66 -0.66 0.9 -1.14 s0.36 -1.08 0.36 -1.82 l0 -8.08 c0 -0.34 0.28 -0.62 0.62 -0.62 l1.56 0 c0.34 0 0.62 0.28 0.62 0.62 l0 8.1 c0 0.94 -0.16 1.78 -0.44 2.54 c-0.3 0.76 -0.72 1.4 -1.26 1.94 c-0.56 0.54 -1.22 0.94 -1.98 1.24 c-0.78 0.3 -1.64 0.44 -2.6 0.44 s-1.82 -0.14 -2.58 -0.44 z M431.46 20 l-1.58 0 c-0.34 0 -0.62 -0.28 -0.62 -0.62 l0 -13.4 c0 -0.34 0.28 -0.62 0.62 -0.62 l6.04 0 c0.74 0 1.44 0.12 2.06 0.36 c0.62 0.26 1.14 0.6 1.58 1.04 c0.44 0.46 0.8 0.98 1.04 1.6 s0.36 1.3 0.36 2.04 c0 1.1 -0.26 2.08 -0.82 2.9 c-0.44 0.66 -1 1.16 -1.66 1.52 c-0.3 0.16 -0.4 0.48 -0.18 0.74 c0.98 1.32 1.84 2.46 2.8 3.78 c0.2 0.28 0.1 0.66 -0.24 0.66 l-2.02 0 c-0.34 0 -0.78 -0.22 -0.98 -0.48 c-0.46 -0.6 -0.9 -1.22 -1.34 -1.82 l-1.32 -1.86 c-0.2 -0.28 -0.64 -0.5 -0.98 -0.5 l-1.54 0 c-0.34 0 -0.62 0.28 -0.62 0.62 l0 3.42 c0 0.34 -0.26 0.62 -0.6 0.62 z M432.67999999999995 12.86 l3.24 0 c0.24 0 0.52 -0.06 0.78 -0.16 c0.28 -0.1 0.52 -0.24 0.74 -0.46 c0.2 -0.2 0.38 -0.46 0.52 -0.76 s0.2 -0.66 0.2 -1.08 c0 -0.22 -0.02 -0.46 -0.08 -0.76 c-0.04 -0.3 -0.16 -0.58 -0.3 -0.84 c-0.16 -0.26 -0.4 -0.5 -0.68 -0.68 c-0.3 -0.18 -0.7 -0.28 -1.18 -0.28 l-3.24 0 c-0.34 0 -0.62 0.28 -0.62 0.62 l0 3.78 c0 0.34 0.28 0.62 0.62 0.62 z M446.4599999999999 8.46 l0 2.42 c0 0.34 0.28 0.62 0.62 0.62 l5.84 0 c0.34 0 0.62 0.28 0.62 0.62 l0 1.3 c0 0.34 -0.28 0.62 -0.62 0.62 l-5.84 0 c-0.34 0 -0.62 0.28 -0.62 0.62 l0 2.2 c0 0.34 0.28 0.62 0.62 0.62 l6.74 0 c0.34 0 0.62 0.28 0.62 0.62 l0 1.28 c0 0.34 -0.28 0.62 -0.62 0.62 l-9.54 0 c-0.34 0 -0.62 -0.28 -0.62 -0.62 l0 -13.4 c0 -0.34 0.28 -0.62 0.62 -0.62 l9.54 0 c0.34 0 0.62 0.28 0.62 0.62 l0 1.24 c0 0.34 -0.28 0.62 -0.62 0.62 l-6.74 0 c-0.34 0 -0.62 0.28 -0.62 0.62 z"/></g>
			</g>
		</svg>
	